<svg width="300" height="100" viewBox="0 0 300 100" fill="none" xmlns="http://www.w3.org/2000/svg">
<rect width="300" height="100" fill="white"/>
<path fill-rule="evenodd" clip-rule="evenodd" d="M40.6849 20C23.7381 20 10 33.2076 10 49.5C10 65.7925 23.7381 79 40.6849 79C57.6318 79 71.3699 65.7925 71.3699 49.5C71.3699 33.2076 57.6318 20 40.6849 20ZM53.4703 44.581V37.2059H27.8996V44.581H27.8999V61.7893H35.5711V44.581H53.4703ZM50.9132 59.3312V51.1369H42.3898V59.3312H50.9132Z" fill="black"/>
<path d="M90.9797 60.8958V51.4784H101.266V46.7369H90.9797V42.813H102.631V38.1042H85.7534V60.8958H90.9797ZM120.933 51.2168C123.53 50.203 124.961 48.0776 124.961 44.8405C124.961 40.7856 122.764 38.1042 116.905 38.1042H108.75V60.8958H113.943V51.838H114.442H115.54L120.966 60.8958H127.158L120.933 51.2168ZM116.373 42.813C118.004 42.813 119.735 42.813 119.735 44.9058C119.735 47.0312 118.037 47.1294 116.373 47.1294H113.943V42.813H116.373ZM142.05 61.4844C148.775 61.4844 153.435 56.7102 153.435 49.5163C153.435 42.2898 148.841 37.5156 142.05 37.5156C135.326 37.5156 130.699 42.3224 130.699 49.5163C130.699 56.6776 135.326 61.4844 142.05 61.4844ZM142.05 56.5794C138.322 56.5794 135.925 53.9308 135.925 49.5163C135.925 45.0692 138.322 42.4206 142.05 42.4206C145.812 42.4206 148.176 45.1347 148.176 49.5163C148.176 53.8654 145.812 56.5794 142.05 56.5794ZM173.894 52.0016L165.139 38.1042H159.813V60.8958H165.04V46.9331L173.761 60.8958H179.121V38.1042H173.894V52.0016ZM196.719 60.8958V42.813H203.477V38.1042H184.636V42.813H191.427V60.8958H196.719ZM221.175 51.2168C223.771 50.203 225.203 48.0776 225.203 44.8405C225.203 40.7856 223.005 38.1042 217.147 38.1042H208.992V60.8958H214.186V51.838H214.683H215.783L221.209 60.8958H227.4L221.175 51.2168ZM216.614 42.813C218.246 42.813 219.977 42.813 219.977 44.9058C219.977 47.0312 218.279 47.1294 216.614 47.1294H214.186V42.813H216.614ZM242.293 61.4844C249.016 61.4844 253.677 56.7102 253.677 49.5163C253.677 42.2898 249.084 37.5156 242.293 37.5156C235.568 37.5156 230.94 42.3224 230.94 49.5163C230.94 56.6776 235.568 61.4844 242.293 61.4844ZM242.293 56.5794C238.564 56.5794 236.168 53.9308 236.168 49.5163C236.168 45.0692 238.564 42.4206 242.293 42.4206C246.055 42.4206 248.418 45.1347 248.418 49.5163C248.418 53.8654 246.055 56.5794 242.293 56.5794ZM268.795 60.8958L273.323 47.6198L277.816 60.8958H282.876L290 38.1042H284.508L280.081 52.9826L275.52 39.4777H271.093L266.598 52.9826L262.138 38.1042H256.679L263.768 60.8958H268.795Z" fill="black"/>
</svg>
