<svg width="60" height="60" viewBox="0 0 60 60" fill="none" xmlns="http://www.w3.org/2000/svg">
<path fill-rule="evenodd" clip-rule="evenodd" d="M30.0017 60C46.5677 60 60 46.5677 60 30C60 13.4305 46.5677 0 30.0017 0C13.4322 0 0 13.4305 0 30C0 46.5677 13.4322 60 30.0017 60ZM15.3878 22.8128C15.3878 18.7168 18.7182 15.3862 22.8123 15.3862H37.186C41.2818 15.3862 44.614 18.7168 44.614 22.8128V37.1872C44.614 41.2815 41.2818 44.6138 37.186 44.6138H22.8123C18.7182 44.6138 15.3878 41.2815 15.3878 37.1872V22.8128ZM22.8123 48H37.186C43.1475 48 48 43.149 48 37.1872V22.8128C48 16.851 43.1475 12 37.186 12H22.8123C16.8508 12 12 16.851 12 22.8128V37.1872C12 43.149 16.8508 48 22.8123 48ZM39 19C37.8948 19 37 19.8964 37 21C37 22.1053 37.8948 23 39 23C40.1052 23 41 22.1053 41 21C41 19.8964 40.1052 19 39 19ZM24.2346 30C24.2346 33.1785 26.8209 35.7651 30.0009 35.7651C33.1791 35.7651 35.7636 33.1785 35.7636 30C35.7636 26.8214 33.1791 24.2349 30.0009 24.2349C26.8209 24.2349 24.2346 26.8214 24.2346 30ZM21 30C21 25.0366 25.038 21 30.0009 21C34.962 21 39 25.0366 39 30C39 34.9634 34.962 39 30.0009 39C25.038 39 21 34.9634 21 30Z" fill="#040606"/>
</svg>
