<svg width="100" height="100" viewBox="0 0 100 100" fill="none" xmlns="http://www.w3.org/2000/svg">
<rect y="80" width="30" height="20" rx="10" fill="white"/>
<rect x="10" width="90" height="20" rx="10" fill="white"/>
<path fill-rule="evenodd" clip-rule="evenodd" d="M15 40C9.47715 40 5 44.4772 5 50C5 55.5228 9.47715 60 15 60H65C70.5229 60 75 55.5228 75 50C75 44.4772 70.5229 40 65 40H15ZM28.024 57.108C27.25 57.108 26.638 56.496 26.638 55.722V45.678C26.638 44.904 27.25 44.292 28.024 44.292C28.798 44.292 29.41 44.904 29.41 45.678V55.722C29.41 56.496 28.798 57.108 28.024 57.108ZM46.3289 57H38.0669C37.4009 57 36.8429 56.442 36.8429 55.776V55.722C36.8429 55.236 37.0229 54.804 37.3469 54.426L43.8809 46.83H38.2829C37.6169 46.83 37.0589 46.29 37.0589 45.624C37.0589 44.958 37.6169 44.4 38.2829 44.4H46.3289C46.9949 44.4 47.5529 44.958 47.5529 45.624V45.678C47.5529 46.164 47.3729 46.578 47.0489 46.974L40.5149 54.57H46.3289C46.9949 54.57 47.5529 55.128 47.5529 55.794C47.5529 56.46 46.9949 57 46.3289 57ZM63.6672 57H55.4052C54.7392 57 54.1812 56.442 54.1812 55.776V55.722C54.1812 55.236 54.3612 54.804 54.6852 54.426L61.2192 46.83H55.6212C54.9552 46.83 54.3972 46.29 54.3972 45.624C54.3972 44.958 54.9552 44.4 55.6212 44.4H63.6672C64.3332 44.4 64.8912 44.958 64.8912 45.624V45.678C64.8912 46.164 64.7112 46.578 64.3872 46.974L57.8532 54.57H63.6672C64.3332 54.57 64.8912 55.128 64.8912 55.794C64.8912 56.46 64.3332 57 63.6672 57Z" fill="white"/>
</svg>
