<svg width="60" height="60" viewBox="0 0 60 60" fill="none" xmlns="http://www.w3.org/2000/svg">
<path d="M27.3864 0.66062C14.8488 1.88402 4.55881 10.6758 1.46161 22.8264C0.799806 25.4238 0.600006 27.0846 0.600006 30.0066C0.600006 32.8662 0.787206 34.4274 1.41181 36.987C1.97401 39.2346 2.54821 40.821 3.58441 42.9312C5.39521 46.6026 7.73041 49.6494 10.74 52.2468C15.0732 55.968 20.2308 58.3158 25.9998 59.19C27.9606 59.4894 32.0064 59.4774 33.9918 59.19C37.2384 58.7028 40.0734 57.8166 42.9204 56.418C48.9018 53.4708 53.46 48.9132 56.4072 42.9312C57.8058 40.0842 58.6926 37.2492 59.1792 34.0026C59.4666 32.0172 59.4792 27.9708 59.1792 26.0106C58.68 22.7262 57.7182 19.6542 56.2944 16.8324C51.9114 8.16602 43.7196 2.25902 34.116 0.848419C32.4936 0.610219 28.947 0.51062 27.3864 0.66062ZM43.5456 20.1414C43.8576 20.2662 43.533 20.5284 36.9642 25.386C33.168 28.1958 30.021 30.4812 29.9712 30.4686C29.9214 30.456 27.4488 28.6452 24.4764 26.4474C21.5046 24.2496 18.4074 21.9642 17.583 21.3648C16.197 20.3406 16.122 20.2662 16.3968 20.1534C16.8216 19.9788 43.1082 19.9788 43.5456 20.1414ZM21.9414 28.6956C25.5876 31.3554 28.722 33.6906 28.9098 33.8652C29.1972 34.1274 29.3844 34.1898 29.9214 34.1898C30.321 34.1898 30.6834 34.1148 30.8706 33.9774C31.0452 33.8652 34.392 31.4052 38.301 28.5204L45.4188 23.2878L45.456 30.5436L45.4812 37.8114L45.144 38.4984C44.8818 38.9982 44.6322 39.2724 44.1828 39.5598L43.5708 39.9342L30.1218 39.9714L16.6722 39.9966L15.9978 39.6468C15.5106 39.3972 15.2238 39.135 14.949 38.685L14.5746 38.0856L14.5362 30.6558L14.511 23.2254L14.9106 23.5374C15.1356 23.7 18.3078 26.0232 21.9414 28.6956Z" fill="black"/>
</svg>
