<svg width="300" height="100" viewBox="0 0 300 100" fill="none" xmlns="http://www.w3.org/2000/svg">
<rect width="300" height="100" fill="white"/>
<g clip-path="url(#clip0)">
<path d="M47.4792 45.1112V50.5675H36.0286V61.5238H29.9768V32.2778H49.8737V37.7341H36.0286V45.1112H47.4792Z" fill="#0273F2"/>
<path d="M59.0517 28C60.0966 28 60.9964 28.3783 61.751 29.1349C62.5056 29.8624 62.8831 30.7354 62.8831 31.754C62.8831 32.7434 62.5056 33.6164 61.751 34.373C60.9964 35.1296 60.0966 35.5079 59.0517 35.5079C58.0067 35.5079 57.1069 35.1296 56.3523 34.373C55.6266 33.6164 55.2638 32.7434 55.2638 31.754C55.2638 30.7354 55.6266 29.8624 56.3523 29.1349C57.1069 28.3783 58.0067 28 59.0517 28ZM62.2735 39.4801V61.5238H56.7441V44.1944H53.2175V39.4801H62.2735Z" fill="#0273F2"/>
<path d="M72.5398 39.4801V42.6231C73.2074 41.7208 74.1072 40.8769 75.2392 40.0913C76.4003 39.3056 77.7209 38.9127 79.2012 38.9127C81.4361 38.9127 83.3083 39.6694 84.8176 41.1825C86.327 42.6958 87.0816 44.9656 87.0816 47.9921V61.5238H81.5522L81.5087 48.7341C81.5087 47.25 81.1459 46.1442 80.4203 45.4166C79.7237 44.6892 78.7513 44.3254 77.5032 44.3254C76.5163 44.3254 75.5875 44.6455 74.7168 45.2857C73.875 45.9259 73.1494 46.6825 72.5398 47.5556V61.5238H67.0105V39.4801H72.5398Z" fill="#0273F2"/>
<path d="M99.9167 38.9127C101.107 38.9127 102.311 39.1892 103.53 39.7421C104.749 40.2949 105.765 41.0371 106.578 41.9682V39.4801H112.107V61.5238H106.578V57.8135C105.939 59.0066 105.011 60.0397 103.792 60.9127C102.573 61.7566 101.15 62.1785 99.5249 62.1785C97.7543 62.1785 96.1144 61.7275 94.6051 60.8254C93.1248 59.9233 91.9347 58.6138 91.0349 56.8968C90.1351 55.1799 89.6852 53.0992 89.6852 50.6547C89.6852 48.2103 90.1351 46.1151 91.0349 44.3691C91.9638 42.6231 93.1973 41.2844 94.7357 40.3532C96.3031 39.3928 98.03 38.9127 99.9167 38.9127ZM101.049 44.3254C99.8877 44.3254 98.8863 44.6309 98.0446 45.2421C97.2318 45.8241 96.5933 46.5953 96.1288 47.5556C95.6645 48.5159 95.4322 49.5489 95.4322 50.6547C95.4322 52.3135 95.9258 53.7248 96.9125 54.8888C97.9285 56.0529 99.2637 56.6349 100.918 56.6349C101.905 56.6349 102.819 56.3731 103.661 55.8492C104.532 55.3254 105.228 54.5979 105.751 53.6666C106.302 52.7063 106.578 51.5568 106.578 50.2182V47.0754C105.794 46.2315 104.938 45.5622 104.009 45.0675C103.11 44.5727 102.123 44.3254 101.049 44.3254Z" fill="#0273F2"/>
<path d="M122.2 39.4801V42.6231C122.867 41.7208 123.767 40.8769 124.899 40.0913C126.06 39.3056 127.381 38.9127 128.861 38.9127C131.096 38.9127 132.968 39.6694 134.477 41.1825C135.987 42.6958 136.742 44.9656 136.742 47.9921V61.5238H131.212L131.169 48.7341C131.169 47.25 130.806 46.1442 130.08 45.4166C129.384 44.6892 128.411 44.3254 127.163 44.3254C126.176 44.3254 125.248 44.6455 124.377 45.2857C123.535 45.9259 122.809 46.6825 122.2 47.5556V61.5238H116.67V39.4801H122.2Z" fill="#0273F2"/>
<path d="M150.883 38.9127C152.508 38.9127 153.843 39.1746 154.889 39.6984C155.933 40.2222 156.76 40.7315 157.37 41.2262V46.3334C156.616 45.7804 155.759 45.3148 154.801 44.9365C153.873 44.5582 152.726 44.3691 151.361 44.3691C150.259 44.3691 149.228 44.6455 148.271 45.1984C147.341 45.7514 146.602 46.4934 146.05 47.4246C145.498 48.3558 145.223 49.418 145.223 50.6112C145.223 52.4154 145.803 53.8995 146.964 55.0635C148.126 56.2275 149.592 56.8095 151.361 56.8095C152.726 56.8095 153.873 56.6349 154.801 56.2857C155.759 55.9074 156.616 55.4418 157.37 54.8888V59.9524C156.76 60.4762 155.933 60.9855 154.889 61.4801C153.843 61.9458 152.508 62.1785 150.883 62.1785C148.648 62.1785 146.66 61.6547 144.918 60.6072C143.205 59.5304 141.841 58.1191 140.825 56.3731C139.839 54.5979 139.345 52.6773 139.345 50.6112C139.345 49.0687 139.62 47.5992 140.172 46.2024C140.753 44.8056 141.566 43.5687 142.61 42.4921C143.656 41.3862 144.875 40.5133 146.267 39.8731C147.69 39.2328 149.228 38.9127 150.883 38.9127Z" fill="#0273F2"/>
<path d="M169.683 38.9127C171.83 38.9127 173.673 39.3783 175.211 40.3096C176.779 41.2407 177.97 42.5357 178.782 44.1944C179.624 45.8241 180.044 47.7156 180.044 49.8691V52.2262H164.109C164.4 53.7103 165.125 54.9035 166.286 55.8056C167.448 56.7077 168.87 57.1587 170.553 57.1587C172.149 57.1587 173.601 56.8386 174.908 56.1984C176.213 55.5582 177.258 54.9035 178.042 54.2341L177.998 59.3849C177.302 59.996 176.257 60.6217 174.864 61.2619C173.5 61.8731 171.99 62.1785 170.336 62.1785C168.159 62.1785 166.171 61.6839 164.37 60.6944C162.601 59.7051 161.178 58.3519 160.105 56.6349C159.059 54.918 158.537 52.9537 158.537 50.7421C158.537 48.5886 159.016 46.6243 159.974 44.8492C160.932 43.0741 162.252 41.6481 163.936 40.5715C165.619 39.4656 167.535 38.9127 169.683 38.9127ZM169.552 43.7579C168.187 43.7579 167.041 44.1799 166.113 45.0238C165.183 45.8677 164.545 47.0026 164.197 48.4285H174.733C174.617 46.8572 174.036 45.6932 172.992 44.9365C171.946 44.1507 170.8 43.7579 169.552 43.7579Z" fill="#0273F2"/>
<path d="M191.792 31.7103C193.475 31.7103 195.013 31.9431 196.407 32.4087C197.8 32.8743 198.975 33.4127 199.933 34.0238V40.004C198.888 39.3638 197.77 38.7672 196.581 38.2143C195.391 37.6614 194.041 37.3849 192.531 37.3849C191.776 37.3849 191.022 37.5013 190.268 37.7341C189.542 37.9669 188.933 38.3161 188.439 38.7817C187.975 39.2474 187.742 39.8439 187.742 40.5715C187.742 41.5318 188.164 42.2593 189.005 42.754C189.847 43.2486 190.877 43.7434 192.096 44.2381L195.666 45.7222C197.698 46.5953 199.193 47.6574 200.151 48.9087C201.109 50.16 201.587 51.586 201.587 53.1865C201.587 54.9325 201.079 56.4748 200.063 57.8135C199.077 59.1231 197.742 60.1561 196.058 60.9127C194.403 61.6693 192.561 62.0476 190.529 62.0476C188.816 62.0476 187.176 61.7566 185.609 61.1746C184.041 60.5926 182.678 59.8796 181.516 59.0357V53.0556C182.793 53.9867 184.202 54.7725 185.74 55.4127C187.278 56.0529 188.917 56.3731 190.66 56.3731C191.879 56.3731 192.923 56.1402 193.794 55.6746C194.665 55.1799 195.1 54.4524 195.1 53.4921C195.1 52.7355 194.738 52.1243 194.011 51.6587C193.315 51.164 192.546 50.7566 191.704 50.4365L187.22 48.6904C184.955 47.8175 183.417 46.6825 182.605 45.2857C181.821 43.8598 181.429 42.2883 181.429 40.5715C181.429 38.7963 181.909 37.254 182.866 35.9444C183.853 34.6058 185.13 33.5728 186.698 32.8452C188.264 32.0886 189.963 31.7103 191.792 31.7103Z" fill="#0273F2"/>
<path d="M212.464 33.0635V39.4802H218.558V44.1072H212.464V53.6231C212.464 54.6124 212.681 55.3981 213.116 55.9802C213.58 56.5331 214.263 56.8096 215.163 56.8096C215.946 56.8096 216.614 56.7222 217.166 56.5476C217.746 56.3731 218.283 56.1257 218.777 55.8056V60.2143C218.225 60.7672 217.528 61.2328 216.687 61.6112C215.874 61.9895 214.843 62.1785 213.596 62.1785C211.622 62.1785 210.01 61.5529 208.763 60.3016C207.544 59.0212 206.934 57.2752 206.934 55.0635V44.1072H202.972V41.2699C204.365 40.7752 205.642 39.8439 206.803 38.4762C207.994 37.1085 208.937 35.3042 209.633 33.0635H212.464Z" fill="#0273F2"/>
<path d="M232.221 38.9127C234.368 38.9127 236.328 39.4365 238.099 40.4841C239.87 41.5026 241.292 42.8995 242.366 44.6746C243.468 46.4206 244.02 48.3849 244.02 50.5675C244.02 52.75 243.468 54.7143 242.366 56.4603C241.292 58.2063 239.87 59.6032 238.099 60.6507C236.328 61.6693 234.368 62.1785 232.221 62.1785C230.103 62.1785 228.143 61.6693 226.344 60.6507C224.573 59.6032 223.151 58.2063 222.077 56.4603C221.003 54.7143 220.465 52.75 220.465 50.5675C220.465 48.3849 221.003 46.4206 222.077 44.6746C223.151 42.8995 224.573 41.5026 226.344 40.4841C228.143 39.4365 230.103 38.9127 232.221 38.9127ZM232.221 44.2818C231.176 44.2818 230.204 44.5291 229.304 45.0238C228.404 45.5185 227.679 46.2315 227.127 47.1627C226.605 48.0939 226.344 49.2288 226.344 50.5675C226.344 51.9061 226.605 53.0411 227.127 53.9722C227.679 54.9035 228.404 55.6164 229.304 56.1112C230.204 56.5767 231.176 56.8095 232.221 56.8095C233.266 56.8095 234.238 56.5767 235.138 56.1112C236.038 55.6164 236.764 54.9035 237.315 53.9722C237.866 53.0411 238.143 51.9061 238.143 50.5675C238.143 49.2288 237.866 48.0939 237.315 47.1627C236.764 46.2315 236.038 45.5185 235.138 45.0238C234.238 44.5291 233.266 44.2818 232.221 44.2818Z" fill="#0273F2"/>
<path d="M260.861 45.6785C259.931 45.1547 258.959 44.8928 257.943 44.8928C256.666 44.8928 255.607 45.3148 254.765 46.1587C253.923 46.9736 253.184 47.9921 252.545 49.2143V61.5238H247.015V39.4801H252.545V43.6269C253.299 42.3175 254.184 41.2262 255.2 40.3532C256.246 39.4801 257.421 39.0437 258.727 39.0437C259.511 39.0437 260.222 39.1746 260.861 39.4365V45.6785Z" fill="#0273F2"/>
<path d="M266.382 39.4801L272.651 53.5357L278.747 39.4801H285.059L269.081 72H262.811L269.428 59.9087L259.938 39.4801H266.382Z" fill="#0273F2"/>
<path d="M15 52.8563H16.8193V55.9789H24.7077V57.9926H16.8193V61.1153H15L15 52.8563Z" fill="#0273F2"/>
<path d="M15 48.9748H18.9733V44.4368H15L15 42.4231H24.7513V44.4368H20.7926V48.9748H24.7513V51.0031H15L15 48.9748Z" fill="#0273F2"/>
<path d="M18.9588 33.1573H20.6034V37.4765H22.9612V32.5882L24.7513 32.5882V39.5047H15L15 32.5882H16.7465V37.4765H18.9588V33.1573Z" fill="#0273F2"/>
</g>
<defs>
<clipPath id="clip0">
<rect width="271" height="44" fill="white" transform="translate(15 28)"/>
</clipPath>
</defs>
</svg>
